<svg version="1.1" id="Layer_1" xmlns="http://www.w3.org/2000/svg" xmlns:xlink="http://www.w3.org/1999/xlink" x="0px" y="0px"
	 width="100%" viewBox="0 0 657 523" enable-background="new 0 0 657 523" xml:space="preserve">
<path fill="#FCFCFC" opacity="1.000000" stroke="none" 
	d="
M458.000000,524.000000 
	C305.333344,524.000000 153.166672,524.000000 1.000000,524.000000 
	C1.000000,349.666656 1.000000,175.333328 1.000000,1.000000 
	C220.000000,1.000000 439.000000,1.000000 658.000000,1.000000 
	C658.000000,175.333328 658.000000,349.666656 658.000000,524.000000 
	C591.500000,524.000000 525.000000,524.000000 458.000000,524.000000 
M523.920593,250.359879 
	C523.274536,249.920807 522.628540,249.481750 521.938110,248.346985 
	C520.821106,246.932114 519.833740,245.387802 518.568420,244.121155 
	C473.698456,199.205292 428.803986,154.313934 383.902405,109.429695 
	C382.663513,108.191299 381.309570,107.067993 379.084686,105.054100 
	C371.609406,112.821968 364.503143,120.206383 357.011780,127.990959 
	C352.302155,123.125893 348.005432,118.227974 343.208374,113.882408 
	C339.596771,110.610741 339.650787,108.368645 343.233429,105.123322 
	C349.482147,99.462875 355.342651,93.373886 360.919769,87.902161 
	C351.688110,78.720184 343.121643,70.199829 335.479126,62.598469 
	C327.019409,70.635941 318.178589,79.035492 308.982208,87.772865 
	C315.011719,93.712845 321.115387,99.611748 327.064880,105.662239 
	C328.678864,107.303635 331.286499,109.123077 328.575470,111.895607 
	C323.244904,117.347122 317.848663,122.734451 311.905914,128.726761 
	C305.545288,122.253456 299.474701,116.361168 293.759308,110.142456 
	C290.737305,106.854324 288.757904,106.552605 285.369659,109.963348 
	C249.316238,146.256256 213.089981,182.377426 176.955902,218.590378 
	C175.729935,219.819016 174.973816,221.516495 173.275040,222.965652 
	C166.840942,220.244476 160.507660,217.233994 153.924698,214.940002 
	C151.168518,213.979568 147.544571,213.613708 144.900726,214.579880 
	C136.784210,217.546021 128.937302,221.256439 121.020302,224.756073 
	C119.597824,225.384872 118.340477,226.387207 116.595261,227.473221 
	C118.051849,228.683823 118.918304,229.403961 119.554214,230.870621 
	C119.605385,239.987701 116.759415,249.205994 120.542061,258.247070 
	C121.699524,255.093262 121.912659,251.923630 122.038689,248.750549 
	C122.272003,242.876343 122.454361,237.000137 123.423767,231.578476 
	C124.693565,233.184525 126.848000,234.676895 127.071648,236.417374 
	C127.821243,242.250732 127.881416,248.172699 127.760109,254.525436 
	C128.093887,256.169861 128.427658,257.814301 128.788712,260.173004 
	C129.283539,261.761627 129.778351,263.350281 129.617462,265.201080 
	C123.952431,271.159241 118.287407,277.117432 112.596786,283.102539 
	C113.033783,284.563995 113.584915,286.407166 113.690323,288.743408 
	C111.136581,292.322601 108.145950,295.676758 106.153381,299.545044 
	C104.204475,303.328522 104.191826,308.369568 101.667259,311.531769 
	C98.368118,315.664185 98.666527,319.941986 97.975365,324.492249 
	C96.534729,333.976593 107.297066,335.143677 109.448616,342.235321 
	C110.000488,344.054291 113.532341,345.522339 115.950218,346.120422 
	C123.837784,348.071350 131.876190,349.404236 139.792618,351.249268 
	C145.887054,352.669617 151.800705,352.856323 157.936996,351.247437 
	C164.176743,349.611389 170.599030,348.671387 177.122284,348.160706 
	C178.452850,349.640656 179.718719,351.185242 181.123474,352.591064 
	C214.447174,385.939606 247.785812,419.273193 281.121735,452.609528 
	C289.495178,460.983154 289.493134,460.981171 297.848816,452.631073 
	C302.503906,447.979187 307.166962,443.335236 311.203522,439.309021 
	C317.685760,445.714539 323.563354,451.522552 329.875732,457.760162 
	C323.800476,463.797058 317.482330,470.145660 311.073669,476.401489 
	C309.099091,478.328949 308.347931,479.938019 310.680450,482.219574 
	C317.825378,489.208374 324.772644,496.401123 332.002960,503.298431 
	C332.903442,504.157410 335.765533,504.467621 336.499390,503.762665 
	C344.733063,495.854218 352.727539,487.696747 361.552582,478.837006 
	C353.705139,471.482635 346.260651,464.505951 338.130615,456.886749 
	C343.412415,451.777222 348.194336,447.203461 352.916168,442.568481 
	C357.531708,438.037811 357.499695,438.015564 362.234680,442.731781 
	C368.087799,448.561707 373.950439,454.382050 380.869507,461.260925 
	C382.427795,459.054626 383.376434,457.205322 384.774750,455.804993 
	C435.036987,405.469971 485.339264,355.174866 535.649780,304.888092 
	C537.054504,303.484039 538.609619,302.230530 540.753235,301.197021 
	C546.696411,304.264435 551.600891,301.226593 556.068481,298.605530 
	C557.413147,299.862579 558.546631,300.922150 560.828857,303.055664 
	C560.828857,284.807739 560.867065,268.244995 560.722290,251.683884 
	C560.714600,250.806702 559.159668,249.943054 558.325073,249.073090 
	C557.922058,249.267380 557.518982,249.461670 557.115967,249.655960 
	C557.115967,256.187012 557.115967,262.718048 557.115967,270.169067 
	C551.665527,266.216156 546.592590,264.792694 540.753723,266.521301 
	C535.204346,261.331879 529.654968,256.142487 523.920593,250.359879 
M596.411499,272.987183 
	C596.981445,271.206238 597.551392,269.425293 598.121277,267.644348 
	C597.363342,267.310211 596.605347,266.976044 595.847351,266.641876 
	C590.192993,275.971619 587.792053,286.918762 582.954651,297.606445 
	C582.118774,295.651672 581.535889,294.532654 581.151184,293.349121 
	C578.688782,285.773895 576.272766,278.183563 573.835022,270.600281 
	C573.117615,268.368530 572.477844,265.976044 568.849243,267.924072 
	C570.575928,273.055267 572.266113,278.061005 573.944519,283.070709 
	C575.684509,288.264313 577.423035,293.458527 579.144348,298.658325 
	C581.394897,305.456573 578.747681,310.752777 572.082214,313.191406 
	C571.109192,313.547394 570.436646,314.724609 569.625061,315.521820 
	C570.764709,315.931274 572.410583,317.035553 572.960144,316.635132 
	C576.045410,314.387115 580.103394,312.345520 581.556213,309.187683 
	C586.893982,297.585236 591.337158,285.571198 596.411499,272.987183 
z"/>
<path fill="#DDE6FC" opacity="1.000000" stroke="none" 
	d="
M173.998688,222.995453 
	C174.973816,221.516495 175.729935,219.819016 176.955902,218.590378 
	C213.089981,182.377426 249.316238,146.256256 285.369659,109.963348 
	C288.757904,106.552605 290.737305,106.854324 293.759308,110.142456 
	C299.474701,116.361168 305.545288,122.253456 311.905914,128.726761 
	C317.848663,122.734451 323.244904,117.347122 328.575470,111.895607 
	C331.286499,109.123077 328.678864,107.303635 327.064880,105.662239 
	C321.115387,99.611748 315.011719,93.712845 308.982208,87.772865 
	C318.178589,79.035492 327.019409,70.635941 335.479126,62.598469 
	C343.121643,70.199829 351.688110,78.720184 360.919769,87.902161 
	C355.342651,93.373886 349.482147,99.462875 343.233429,105.123322 
	C339.650787,108.368645 339.596771,110.610741 343.208374,113.882408 
	C348.005432,118.227974 352.302155,123.125893 357.011780,127.990959 
	C364.503143,120.206383 371.609406,112.821968 379.084686,105.054100 
	C381.309570,107.067993 382.663513,108.191299 383.902405,109.429695 
	C428.803986,154.313934 473.698456,199.205292 518.568420,244.121155 
	C519.833740,245.387802 520.821106,246.932114 521.680786,248.854340 
	C520.903503,250.259689 520.383606,251.157654 519.533081,252.001007 
	C517.686340,250.680176 516.061523,249.522675 514.669617,248.131989 
	C471.301758,204.802322 427.958252,161.448288 384.601135,118.107872 
	C383.130157,116.637459 381.557159,115.269112 380.692474,114.466522 
	C374.338928,120.771729 368.473877,126.592163 362.346802,132.672638 
	C370.601990,141.280975 379.086884,150.299072 387.762146,159.130112 
	C397.614105,169.158844 407.640228,179.016357 417.583740,188.955200 
	C444.799164,216.157852 472.010529,243.364594 499.231384,270.561798 
	C499.459229,270.789459 499.796021,270.908112 499.951752,271.369446 
	C499.203339,272.779663 498.585144,273.898132 497.623962,274.985229 
	C493.836304,272.319824 490.391632,269.685760 486.933472,266.703674 
	C480.861115,259.991455 474.927155,253.502625 468.722778,247.283600 
	C433.072571,211.549240 397.321259,175.915649 361.729126,140.123657 
	C358.545044,136.921661 356.527832,136.471832 353.346832,140.026489 
	C348.688141,145.232376 343.309387,149.794144 338.654388,155.002991 
	C335.453186,158.585098 333.314545,158.183807 330.266907,154.868317 
	C324.550659,148.649673 318.463013,142.772415 312.300171,136.520172 
	C310.561157,138.119781 309.323486,139.178131 308.175323,140.325958 
	C262.581360,185.906494 216.989594,231.489182 171.437668,277.111694 
	C170.086121,278.465332 169.164108,280.247803 167.711670,281.784302 
	C166.694412,282.255829 165.610336,282.648743 165.400681,283.316284 
	C164.927551,284.822845 164.886703,286.465210 164.326477,288.042480 
	C161.915329,286.986481 159.847656,285.940308 157.905823,284.569000 
	C159.552505,281.361755 161.073380,278.479584 162.799484,275.840820 
	C164.405289,275.155487 166.011047,274.432251 167.176819,273.268341 
	C212.667831,227.848785 258.118805,182.389130 303.573944,136.933670 
	C304.398132,136.109467 305.508057,135.402405 305.943512,134.404526 
	C306.394714,133.370605 306.739624,131.524521 306.180359,130.934006 
	C300.634796,125.078697 294.891907,119.410278 288.387939,112.867203 
	C286.611115,115.178299 285.549133,116.925697 284.145355,118.331955 
	C250.260666,152.276855 216.345871,186.191788 182.403320,220.078873 
	C180.905334,221.574387 179.093613,222.755646 177.124359,224.175278 
	C175.880020,223.843323 174.939362,223.419388 173.998688,222.995453 
M333.329559,104.147903 
	C334.249481,104.199432 335.578003,104.673271 336.027435,104.238487 
	C341.829285,98.625160 347.505951,92.882423 353.579132,86.807419 
	C347.757263,81.080734 342.531158,75.739456 337.016174,70.715271 
	C336.110535,69.890244 333.255524,69.741859 332.455139,70.499519 
	C326.832001,75.822426 321.511353,81.464867 316.479523,86.610916 
	C322.026093,92.503510 327.362152,98.172462 333.329559,104.147903 
M328.516052,145.009384 
	C329.815521,146.297836 330.947235,147.868881 332.473694,148.774887 
	C333.482666,149.373734 335.621094,149.620697 336.292114,148.994537 
	C342.081940,143.591843 347.653015,137.954758 352.497131,133.170044 
	C346.040894,126.611160 340.163391,120.640205 333.897858,114.275055 
	C329.035278,119.239357 323.852112,124.623047 318.555298,129.892532 
	C316.489746,131.947433 316.927734,133.533783 318.821289,135.347061 
	C321.944672,138.338013 324.954926,141.447098 328.516052,145.009384 
z"/>
<path fill="#5D75FD" opacity="1.000000" stroke="none" 
	d="
M164.669968,288.052307 
	C164.886703,286.465210 164.927551,284.822845 165.400681,283.316284 
	C165.610336,282.648743 166.694412,282.255829 168.023849,281.975159 
	C172.513382,283.761658 176.523926,285.006348 180.158096,286.953522 
	C183.276596,288.624420 187.167511,290.485626 188.618042,293.332184 
	C193.000717,301.932709 196.362076,311.053680 200.024399,320.400818 
	C199.926056,322.878052 199.924850,324.926239 199.831863,327.325287 
	C197.577301,330.388275 195.438934,333.120453 193.238525,335.801666 
	C192.463242,336.746338 191.510971,337.543365 190.683075,338.447693 
	C188.427979,340.910950 186.196136,343.395538 183.583694,345.886871 
	C181.121979,346.410248 179.031677,346.918427 176.941376,347.426605 
	C170.599030,348.671387 164.176743,349.611389 157.936996,351.247437 
	C151.800705,352.856323 145.887054,352.669617 139.792618,351.249268 
	C131.876190,349.404236 123.837784,348.071350 115.950218,346.120422 
	C113.532341,345.522339 110.000488,344.054291 109.448616,342.235321 
	C107.297066,335.143677 96.534729,333.976593 97.975365,324.492249 
	C98.666527,319.941986 98.368118,315.664185 101.667259,311.531769 
	C104.191826,308.369568 104.204475,303.328522 106.153381,299.545044 
	C108.145950,295.676758 111.136581,292.322601 114.258087,288.433044 
	C116.926483,287.225891 119.027107,286.329102 121.510422,285.379761 
	C125.126808,284.075684 128.360504,282.824158 131.843552,281.476105 
	C132.661575,285.936615 133.467484,290.331024 134.282440,294.774841 
	C137.425262,292.413422 139.993973,290.483398 142.551804,288.561523 
	C140.522980,284.821228 138.336105,280.931885 136.293152,276.968384 
	C135.114914,274.682495 134.169174,272.276825 133.051605,269.603821 
	C132.080658,267.834686 131.176926,266.386810 130.273178,264.938904 
	C129.778351,263.350281 129.283539,261.761627 128.842133,259.402588 
	C128.665543,257.108368 128.435532,255.584549 128.205536,254.060730 
	C127.881416,248.172699 127.821243,242.250732 127.071648,236.417374 
	C126.848000,234.676895 124.693565,233.184525 122.834915,231.284958 
	C121.425629,230.702332 120.605202,230.413208 119.784767,230.124100 
	C118.918304,229.403961 118.051849,228.683823 116.595261,227.473221 
	C118.340477,226.387207 119.597824,225.384872 121.020302,224.756073 
	C128.937302,221.256439 136.784210,217.546021 144.900726,214.579880 
	C147.544571,213.613708 151.168518,213.979568 153.924698,214.940002 
	C160.507660,217.233994 166.840942,220.244476 173.636871,222.980560 
	C174.939362,223.419388 175.880020,223.843323 177.319214,224.496872 
	C178.931747,225.623962 180.045746,226.521423 181.455154,227.656876 
	C180.405884,228.516388 179.752869,229.485870 178.935379,229.653580 
	C170.938400,231.294022 170.514359,236.673004 170.541199,243.645020 
	C170.570923,251.371643 171.297546,259.545990 166.523605,266.693451 
	C164.748688,269.350800 163.877518,272.611725 162.594238,275.597412 
	C161.073380,278.479584 159.552505,281.361755 157.647308,284.772125 
	C156.529755,286.493988 155.796555,287.687653 155.192261,288.671417 
	C157.920380,290.484314 160.304932,292.068909 163.594040,294.254578 
	C164.003159,291.896210 164.336563,289.974243 164.669968,288.052307 
M151.091827,324.974731 
	C151.091827,332.519348 151.091827,340.063965 151.091827,348.244751 
	C158.153564,346.691650 164.560730,345.282501 171.720230,343.916168 
	C173.824829,343.326935 175.929428,342.737671 178.848114,342.188660 
	C182.426590,341.973053 185.908569,341.628479 186.076202,339.055756 
	C182.702469,334.332428 179.202805,331.407745 178.395309,327.868805 
	C176.955002,321.556641 177.267014,314.908539 183.902298,310.109497 
	C188.401779,310.001770 187.364777,306.218201 186.692825,304.405731 
	C185.886551,302.230957 183.669205,299.930328 181.517792,299.104980 
	C179.740662,298.423187 177.170532,299.808472 174.170624,300.180939 
	C169.608719,301.105499 165.048004,302.036072 160.484650,302.953400 
	C150.168625,305.027161 150.168091,305.024506 151.145554,316.806061 
	C151.173767,319.222076 151.201996,321.638092 151.091827,324.974731 
M135.816589,302.785004 
	C129.967255,301.512360 124.134682,300.154572 118.262245,298.999329 
	C114.794746,298.317200 112.176720,299.872650 111.457130,303.271759 
	C110.890305,305.949219 109.943596,308.748566 113.959885,310.692749 
	C122.561028,314.856476 122.768654,329.858887 114.700928,335.183319 
	C113.536438,335.951874 111.824135,338.029755 112.068176,338.410645 
	C112.968307,339.815430 114.418411,341.244293 115.966553,341.775208 
	C118.772621,342.737549 121.797829,343.059998 124.730751,343.653564 
	C131.978165,345.120300 139.225128,346.589294 146.895096,348.143036 
	C146.895096,336.607452 146.925583,325.812012 146.886322,315.016876 
	C146.848846,304.713196 146.816895,304.713318 135.816589,302.785004 
z"/>
<path fill="#DDE6FC" opacity="1.000000" stroke="none" 
	d="
M177.031830,347.793640 
	C179.031677,346.918427 181.121979,346.410248 183.626495,346.242432 
	C185.259262,348.122375 186.338760,349.800812 187.716827,351.181152 
	C220.051758,383.569550 252.418777,415.925934 284.780579,448.287476 
	C285.604279,449.111206 286.304352,450.323578 287.294525,450.650421 
	C288.608063,451.083893 290.745575,451.462067 291.500061,450.759308 
	C297.186859,445.462585 302.621002,439.894592 308.234161,434.311859 
	C307.376648,433.197693 306.950714,432.497040 306.387543,431.933533 
	C272.153625,397.678345 237.914841,363.428070 203.632324,329.221558 
	C202.638306,328.229736 201.170517,327.712769 199.923630,326.974396 
	C199.924850,324.926239 199.926056,322.878052 200.360046,320.439911 
	C202.312134,321.309875 203.943741,322.457428 205.334290,323.846252 
	C239.398880,357.869110 273.436768,391.918671 307.485382,425.957520 
	C308.867188,427.338928 310.306732,428.662506 312.616791,430.870972 
	C320.253540,423.019165 327.610077,415.455475 335.268219,407.581696 
	C341.394623,413.779266 347.111511,419.588257 352.858093,425.367767 
	C357.481506,430.017639 357.503113,430.007538 362.169037,425.342010 
	C401.986633,385.527924 441.804718,345.714294 481.605560,305.883453 
	C482.888702,304.599335 483.988983,303.132477 485.463165,301.733643 
	C486.195190,301.133301 486.638519,300.550110 487.374634,299.820862 
	C491.035950,296.756622 494.404510,293.838470 497.854065,291.277161 
	C498.643829,293.409943 499.352570,295.185822 499.710205,297.002991 
	C497.941833,298.158722 496.392883,299.141296 495.126312,300.406555 
	C451.864197,343.623199 408.627319,386.865112 365.397552,430.114136 
	C364.161041,431.351227 363.041168,432.704895 361.421234,434.497314 
	C366.511536,439.391022 371.220703,443.853821 375.855652,448.392365 
	C380.513977,452.953796 380.486450,452.991638 385.177856,448.300446 
	C434.073334,399.406555 482.960480,350.504333 531.893555,301.648132 
	C533.356384,300.187683 535.295715,299.204498 537.299866,298.112701 
	C538.422729,299.119995 539.258667,300.013397 540.094604,300.906799 
	C538.609619,302.230530 537.054504,303.484039 535.649780,304.888092 
	C485.339264,355.174866 435.036987,405.469971 384.774750,455.804993 
	C383.376434,457.205322 382.427795,459.054626 380.869507,461.260925 
	C373.950439,454.382050 368.087799,448.561707 362.234680,442.731781 
	C357.499695,438.015564 357.531708,438.037811 352.916168,442.568481 
	C348.194336,447.203461 343.412415,451.777222 338.130615,456.886749 
	C346.260651,464.505951 353.705139,471.482635 361.552582,478.837006 
	C352.727539,487.696747 344.733063,495.854218 336.499390,503.762665 
	C335.765533,504.467621 332.903442,504.157410 332.002960,503.298431 
	C324.772644,496.401123 317.825378,489.208374 310.680450,482.219574 
	C308.347931,479.938019 309.099091,478.328949 311.073669,476.401489 
	C317.482330,470.145660 323.800476,463.797058 329.875732,457.760162 
	C323.563354,451.522552 317.685760,445.714539 311.203522,439.309021 
	C307.166962,443.335236 302.503906,447.979187 297.848816,452.631073 
	C289.493134,460.981171 289.495178,460.983154 281.121735,452.609528 
	C247.785812,419.273193 214.447174,385.939606 181.123474,352.591064 
	C179.718719,351.185242 178.452850,349.640656 177.031830,347.793640 
M346.494873,472.014313 
	C343.027649,468.038757 339.560394,464.063232 335.791962,459.742310 
	C329.060394,466.473846 323.492249,471.905518 318.152344,477.552917 
	C317.477692,478.266449 317.416718,480.654083 318.060760,481.348419 
	C323.437500,487.145050 329.046112,492.726624 335.299957,499.102173 
	C339.667236,494.394653 343.317200,490.323364 347.115173,486.395203 
	C354.862213,478.382690 354.871307,480.570862 346.494873,472.014313 
M336.476685,451.002533 
	C342.123352,445.475525 347.769989,439.948547 352.531799,435.287689 
	C345.939667,428.649994 340.043640,422.713226 333.810211,416.436737 
	C329.065155,421.256104 323.712555,426.462769 318.714355,431.989899 
	C317.856750,432.938202 317.772400,435.907257 318.588226,436.824432 
	C322.663910,441.406494 327.072906,445.708191 331.570740,449.886627 
	C332.608337,450.850494 334.455475,450.942932 336.476685,451.002533 
z"/>
<path fill="#A6BCFC" opacity="1.000000" stroke="none" 
	d="
M540.423950,301.051880 
	C539.258667,300.013397 538.422729,299.119995 537.241455,297.746643 
	C532.684875,288.506989 532.732666,279.777527 537.330078,270.879883 
	C538.723694,269.509399 539.869385,268.337708 541.015076,267.166016 
	C546.592590,264.792694 551.665527,266.216156 557.115967,270.169067 
	C557.115967,262.718048 557.115967,256.187012 557.115967,249.655960 
	C557.518982,249.461670 557.922058,249.267380 558.325073,249.073090 
	C559.159668,249.943054 560.714600,250.806702 560.722290,251.683884 
	C560.867065,268.244995 560.828857,284.807739 560.828857,303.055664 
	C558.546631,300.922150 557.413147,299.862579 556.068481,298.605530 
	C551.600891,301.226593 546.696411,304.264435 540.423950,301.051880 
M544.198975,269.974152 
	C543.108154,271.227722 542.017334,272.481262 540.280151,274.163208 
	C536.538269,280.214935 537.540527,286.562164 539.299561,293.566040 
	C540.511536,295.066528 541.723511,296.567017 543.492493,298.625732 
	C546.316040,298.252045 549.321106,298.370209 551.927368,297.407959 
	C558.488586,294.985596 557.080627,289.184204 557.016418,283.356232 
	C557.012085,282.905273 557.007751,282.454285 557.044678,281.131042 
	C557.108032,272.684082 552.469849,268.398712 544.198975,269.974152 
z"/>
<path fill="#9DB4FC" opacity="1.000000" stroke="none" 
	d="
M500.061310,296.961670 
	C499.352570,295.185822 498.643829,293.409943 497.868225,290.874207 
	C497.856567,285.081726 497.911774,280.049164 497.966949,275.016571 
	C498.585144,273.898132 499.203339,272.779663 500.244263,271.191193 
	C506.488251,263.710266 512.986755,265.391052 519.863647,269.808197 
	C519.863647,263.516357 519.863647,257.786011 519.863647,252.055634 
	C520.383606,251.157654 520.903503,250.259689 521.703003,249.202209 
	C522.628540,249.481750 523.274536,249.920807 523.964600,251.097336 
	C524.010071,253.893509 524.011475,255.952209 523.982300,258.477722 
	C523.951721,273.166687 523.951721,287.388824 523.951721,301.610992 
	C523.356323,301.665466 522.760925,301.719940 522.165527,301.774414 
	C521.411865,300.529633 520.658142,299.284851 519.904846,298.040649 
	C510.085052,304.065338 505.729431,303.783783 500.061310,296.961670 
M502.215637,292.774689 
	C504.612183,298.485657 507.018982,300.035889 511.824371,298.963837 
	C516.882263,297.835419 520.079041,293.981659 520.105164,288.960541 
	C520.125854,284.991760 520.226135,281.020233 520.114319,277.054901 
	C520.004150,273.150604 515.755676,269.376648 510.761292,269.241455 
	C506.963837,269.138641 503.622437,270.487549 502.367126,275.468689 
	C502.313080,281.002380 502.259033,286.536102 502.215637,292.774689 
z"/>
<path fill="#A6BCFC" opacity="1.000000" stroke="none" 
	d="
M596.264221,273.349609 
	C591.337158,285.571198 586.893982,297.585236 581.556213,309.187683 
	C580.103394,312.345520 576.045410,314.387115 572.960144,316.635132 
	C572.410583,317.035553 570.764709,315.931274 569.625061,315.521790 
	C570.436646,314.724609 571.109192,313.547394 572.082214,313.191406 
	C578.747681,310.752777 581.394897,305.456573 579.144348,298.658325 
	C577.423035,293.458527 575.684509,288.264313 573.944519,283.070709 
	C572.266113,278.061005 570.575928,273.055267 568.849243,267.924072 
	C572.477844,265.976044 573.117615,268.368530 573.835022,270.600281 
	C576.272766,278.183563 578.688782,285.773895 581.151184,293.349121 
	C581.535889,294.532654 582.118774,295.651672 582.954651,297.606445 
	C587.792053,286.918762 590.192993,275.971619 595.847351,266.641876 
	C596.605347,266.976044 597.363342,267.310211 598.121277,267.644348 
	C597.551392,269.425293 596.981445,271.206238 596.264221,273.349609 
z"/>
<path fill="#DDE6FC" opacity="1.000000" stroke="none" 
	d="
M129.945312,265.070007 
	C131.176926,266.386810 132.080658,267.834686 132.744904,269.759491 
	C128.952759,273.713928 125.249458,277.057007 121.946815,280.757690 
	C121.051682,281.760681 121.367653,283.844574 121.127747,285.432312 
	C119.027107,286.329102 116.926483,287.225891 114.480957,288.186523 
	C113.584915,286.407166 113.033783,284.563995 112.596786,283.102539 
	C118.287407,277.117432 123.952431,271.159241 129.945312,265.070007 
z"/>
<path fill="#DDE6FC" opacity="1.000000" stroke="none" 
	d="
M524.012939,258.010925 
	C524.011475,255.952209 524.010071,253.893509 524.057129,251.393921 
	C529.654968,256.142487 535.204346,261.331879 540.884399,266.843689 
	C539.869385,268.337708 538.723694,269.509399 537.171631,270.575012 
	C532.514587,266.316254 528.263733,262.163605 524.012939,258.010925 
z"/>
<path fill="#7489FD" opacity="1.000000" stroke="none" 
	d="
M119.669495,230.497360 
	C120.605202,230.413208 121.425629,230.702332 122.451996,231.058105 
	C122.454361,237.000137 122.272003,242.876343 122.038689,248.750549 
	C121.912659,251.923630 121.699524,255.093262 120.542061,258.247070 
	C116.759415,249.205994 119.605385,239.987701 119.669495,230.497360 
z"/>
<path fill="#7489FD" opacity="1.000000" stroke="none" 
	d="
M127.982819,254.293091 
	C128.435532,255.584549 128.665543,257.108368 128.828491,259.045471 
	C128.427658,257.814301 128.093887,256.169861 127.982819,254.293091 
z"/>
<path fill="#FBFCFC" opacity="1.000000" stroke="none" 
	d="
M485.174438,301.750793 
	C483.988983,303.132477 482.888702,304.599335 481.605560,305.883453 
	C441.804718,345.714294 401.986633,385.527924 362.169037,425.342010 
	C357.503113,430.007538 357.481506,430.017639 352.858093,425.367767 
	C347.111511,419.588257 341.394623,413.779266 335.268219,407.581696 
	C327.610077,415.455475 320.253540,423.019165 312.616791,430.870972 
	C310.306732,428.662506 308.867188,427.338928 307.485382,425.957520 
	C273.436768,391.918671 239.398880,357.869110 205.334290,323.846252 
	C203.943741,322.457428 202.312134,321.309875 200.457184,320.010864 
	C196.362076,311.053680 193.000717,301.932709 188.618042,293.332184 
	C187.167511,290.485626 183.276596,288.624420 180.158096,286.953522 
	C176.523926,285.006348 172.513382,283.761658 168.354004,282.021240 
	C169.164108,280.247803 170.086121,278.465332 171.437668,277.111694 
	C216.989594,231.489182 262.581360,185.906494 308.175323,140.325958 
	C309.323486,139.178131 310.561157,138.119781 312.300171,136.520172 
	C318.463013,142.772415 324.550659,148.649673 330.266907,154.868317 
	C333.314545,158.183807 335.453186,158.585098 338.654388,155.002991 
	C343.309387,149.794144 348.688141,145.232376 353.346832,140.026489 
	C356.527832,136.471832 358.545044,136.921661 361.729126,140.123657 
	C397.321259,175.915649 433.072571,211.549240 468.722778,247.283600 
	C474.927155,253.502625 480.861115,259.991455 486.901489,266.735107 
	C486.883026,267.114594 486.817444,267.178680 486.416443,267.122070 
	C482.778290,266.639648 483.098450,268.922028 483.095276,270.927185 
	C483.085022,277.420471 483.143280,283.914368 483.071136,290.406860 
	C483.024139,294.632965 476.991150,299.172272 471.607452,299.166046 
	C467.638641,299.161469 466.031403,296.877838 466.006714,290.974396 
	C465.977478,283.981873 466.103424,276.987549 465.966675,269.997833 
	C465.947540,269.019592 464.816071,268.063141 464.199493,267.096619 
	C463.533997,268.034912 462.309601,268.962128 462.290802,269.913177 
	C462.129456,278.068176 462.021149,286.231934 462.240356,294.383850 
	C462.369904,299.201294 465.508484,302.353302 470.281494,301.893402 
	C474.725098,301.465179 479.048981,299.794800 483.510010,298.649597 
	C483.942078,299.454620 484.558258,300.602722 485.174438,301.750793 
M262.857697,298.008240 
	C260.263275,296.903656 257.699188,295.717682 255.059387,294.735016 
	C254.021439,294.348633 252.814285,294.416809 251.684189,294.277985 
	C252.299881,295.388397 252.659470,297.129791 253.575043,297.501404 
	C257.818848,299.224030 262.129089,301.407684 266.577850,301.872589 
	C276.266296,302.885010 282.974182,298.563812 284.600220,291.398315 
	C286.198669,284.354309 282.755188,279.319885 273.366943,274.829102 
	C269.325775,272.896057 265.069092,271.246735 261.392487,268.756622 
	C255.548401,264.798523 256.462708,257.440552 262.828094,254.359573 
	C267.733490,251.985245 272.513733,253.026520 277.370209,254.621490 
	C278.677612,255.050858 280.245667,254.686523 281.694092,254.686523 
	C281.690491,254.129471 281.686859,253.572418 281.683258,253.015366 
	C276.513123,249.969315 270.902283,249.161789 265.007782,250.224106 
	C258.812195,251.340729 254.546890,255.483139 253.880035,260.790955 
	C253.231567,265.952454 256.059570,270.792847 261.605133,273.576843 
	C265.616943,275.590881 269.766754,277.328064 273.823822,279.254456 
	C278.877777,281.654205 281.502686,285.843994 280.788055,290.219086 
	C279.999359,295.047699 275.751007,298.632385 270.049652,298.916321 
	C267.934784,299.021637 265.786102,298.448853 262.857697,298.008240 
M377.033264,260.447479 
	C377.033264,263.472595 377.033264,266.497711 377.033264,270.027893 
	C375.304291,269.047150 374.460571,268.539520 373.591370,268.080017 
	C365.586761,263.848267 358.671173,266.227081 355.551819,274.712952 
	C352.925629,281.857208 353.115356,289.105591 356.653381,296.013794 
	C359.464752,301.503174 363.622314,303.410950 369.499420,301.669739 
	C371.976044,300.936035 374.223358,299.428406 376.543091,298.288208 
	C377.518585,299.541260 378.425323,300.705933 379.968689,302.688446 
	C380.472260,300.627106 380.877136,299.738953 380.878357,298.850250 
	C380.899506,283.698364 380.870972,268.546356 380.851471,253.394394 
	C380.850830,252.895172 381.016052,252.272110 380.782166,251.921341 
	C380.214111,251.069427 379.456238,250.344086 378.774841,249.567734 
	C378.187805,250.377335 377.172119,251.148178 377.094788,252.003845 
	C376.870972,254.480698 377.024414,256.991638 377.033264,260.447479 
M425.319946,275.500000 
	C425.319855,279.994568 425.107422,284.502167 425.381683,288.979950 
	C425.636414,293.138550 424.137634,297.595398 426.678192,302.273010 
	C428.037598,300.365021 428.823792,299.261566 429.588043,298.188934 
	C440.881226,305.512299 448.643738,302.719025 451.087585,290.110901 
	C452.061676,285.085419 451.677032,279.485962 450.570068,274.442047 
	C448.995667,267.268463 441.472137,264.224884 434.780212,267.225677 
	C433.023438,268.013458 431.323822,268.928864 429.053131,270.056122 
	C429.053131,263.860229 429.154785,258.397644 428.970612,252.944733 
	C428.932007,251.801208 427.841370,250.693237 427.235504,249.568878 
	C426.593048,250.721222 425.422058,251.861130 425.394592,253.027954 
	C425.226135,260.181915 425.316528,267.341980 425.319946,275.500000 
M411.889587,275.260742 
	C409.052063,282.445740 406.214569,289.630737 402.877472,298.080811 
	C401.801392,295.105011 401.156677,293.484100 400.626160,291.826630 
	C398.348419,284.710297 396.211761,277.545807 393.760590,270.490326 
	C393.246277,269.009949 391.619324,267.916168 390.505066,266.644226 
	C389.998352,267.006805 389.491669,267.369385 388.984955,267.731995 
	C389.419739,269.255676 389.796417,270.798828 390.298889,272.299835 
	C393.357849,281.437561 396.508331,290.545227 399.500732,299.704529 
	C401.415436,305.565216 398.422424,311.194489 392.620239,313.129608 
	C391.502106,313.502533 390.443085,314.052795 389.356812,314.521240 
	C389.401550,315.008118 389.446289,315.494995 389.491028,315.981873 
	C390.873444,316.167267 392.300140,316.668060 393.630310,316.481293 
	C398.364716,315.816620 400.603912,312.221619 402.219482,308.302460 
	C407.346649,295.864441 412.344208,283.372772 417.327362,270.876129 
	C417.765778,269.776703 417.733765,268.489685 418.006042,266.737610 
	C413.085510,267.827271 413.581940,271.880615 411.889587,275.260742 
M339.525818,298.283905 
	C340.516998,299.484375 341.508148,300.684845 342.499298,301.885315 
	C342.957672,301.703644 343.416046,301.521942 343.874420,301.340271 
	C343.874420,290.616974 343.915344,279.893158 343.782806,269.171509 
	C343.773895,268.452362 342.452423,267.749390 341.741425,267.038910 
	C341.172272,267.892029 340.132568,268.732880 340.109924,269.600281 
	C339.958008,275.418701 339.404572,281.326691 340.180847,287.042725 
	C341.052551,293.461548 337.571167,296.078857 332.767456,298.249237 
	C326.627319,301.023407 322.977417,298.782166 322.910736,292.059753 
	C322.838135,284.741302 323.010101,277.420105 322.895325,270.102905 
	C322.879181,269.075226 321.838989,268.063629 321.272827,267.044556 
	C320.586639,267.960999 319.324738,268.864929 319.304443,269.795868 
	C319.126953,277.942841 318.930450,286.103638 319.234314,294.241821 
	C319.436829,299.665527 322.696106,302.577484 328.126343,301.939117 
	C331.772705,301.510437 335.246185,299.610718 339.525818,298.283905 
M300.739960,291.326630 
	C300.739960,284.251556 300.739960,277.176453 300.739960,270.198578 
	C304.450409,269.813690 307.253174,269.522949 310.055939,269.232208 
	C310.019012,268.590546 309.982056,267.948914 309.945129,267.307251 
	C306.960114,267.074860 303.975098,266.842468 300.723633,266.589355 
	C300.723633,263.231323 300.856934,260.237244 300.641785,257.268433 
	C300.577881,256.386688 299.534546,255.575958 298.939972,254.732681 
	C298.323883,255.548325 297.235596,256.331268 297.176422,257.185486 
	C296.961639,260.286072 297.091736,263.410522 297.091736,266.438599 
	C294.684631,266.877655 292.867401,267.209106 291.050171,267.540558 
	C290.989655,268.003754 290.929138,268.466980 290.868622,268.930206 
	C292.850769,269.429626 294.832916,269.929047 297.077301,270.494537 
	C297.077301,278.149963 297.031921,285.623352 297.090424,293.095917 
	C297.145660,300.146332 299.045471,301.955231 306.151184,301.579773 
	C307.392487,301.514191 308.588776,300.596497 309.805878,300.072388 
	C308.649445,299.462799 307.460693,298.280853 306.342255,298.343964 
	C301.815643,298.599426 300.358429,296.379395 300.739960,291.326630 
z"/>
<path fill="#FBFCFC" opacity="1.000000" stroke="none" 
	d="
M519.533081,252.001007 
	C519.863647,257.786011 519.863647,263.516357 519.863647,269.808197 
	C512.986755,265.391052 506.488251,263.710266 500.374451,270.899414 
	C499.796021,270.908112 499.459229,270.789459 499.231384,270.561798 
	C472.010529,243.364594 444.799164,216.157852 417.583740,188.955200 
	C407.640228,179.016357 397.614105,169.158844 387.762146,159.130112 
	C379.086884,150.299072 370.601990,141.280975 362.346802,132.672638 
	C368.473877,126.592163 374.338928,120.771729 380.692474,114.466522 
	C381.557159,115.269112 383.130157,116.637459 384.601135,118.107872 
	C427.958252,161.448288 471.301758,204.802322 514.669617,248.131989 
	C516.061523,249.522675 517.686340,250.680176 519.533081,252.001007 
z"/>
<path fill="#FBFBFC" opacity="1.000000" stroke="none" 
	d="
M162.799484,275.840820 
	C163.877518,272.611725 164.748688,269.350800 166.523605,266.693451 
	C171.297546,259.545990 170.570923,251.371643 170.541199,243.645020 
	C170.514359,236.673004 170.938400,231.294022 178.935379,229.653580 
	C179.752869,229.485870 180.405884,228.516388 181.455154,227.656876 
	C180.045746,226.521423 178.931747,225.623962 177.622894,224.404892 
	C179.093613,222.755646 180.905334,221.574387 182.403320,220.078873 
	C216.345871,186.191788 250.260666,152.276855 284.145355,118.331955 
	C285.549133,116.925697 286.611115,115.178299 288.387939,112.867203 
	C294.891907,119.410278 300.634796,125.078697 306.180359,130.934006 
	C306.739624,131.524521 306.394714,133.370605 305.943512,134.404526 
	C305.508057,135.402405 304.398132,136.109467 303.573944,136.933670 
	C258.118805,182.389130 212.667831,227.848785 167.176819,273.268341 
	C166.011047,274.432251 164.405289,275.155487 162.799484,275.840820 
z"/>
<path fill="#FBFBFC" opacity="1.000000" stroke="none" 
	d="
M333.013855,103.994659 
	C327.362152,98.172462 322.026093,92.503510 316.479523,86.610916 
	C321.511353,81.464867 326.832001,75.822426 332.455139,70.499519 
	C333.255524,69.741859 336.110535,69.890244 337.016174,70.715271 
	C342.531158,75.739456 347.757263,81.080734 353.579132,86.807419 
	C347.505951,92.882423 341.829285,98.625160 336.027435,104.238487 
	C335.578003,104.673271 334.249481,104.199432 333.013855,103.994659 
z"/>
<path fill="#FBFCFC" opacity="1.000000" stroke="none" 
	d="
M328.264465,144.757889 
	C324.954926,141.447098 321.944672,138.338013 318.821289,135.347061 
	C316.927734,133.533783 316.489746,131.947433 318.555298,129.892532 
	C323.852112,124.623047 329.035278,119.239357 333.897858,114.275055 
	C340.163391,120.640205 346.040894,126.611160 352.497131,133.170044 
	C347.653015,137.954758 342.081940,143.591843 336.292114,148.994537 
	C335.621094,149.620697 333.482666,149.373734 332.473694,148.774887 
	C330.947235,147.868881 329.815521,146.297836 328.264465,144.757889 
z"/>
<path fill="#FBFCFC" opacity="1.000000" stroke="none" 
	d="
M497.623962,274.985229 
	C497.911774,280.049164 497.856567,285.081726 497.787231,290.517303 
	C494.404510,293.838470 491.035950,296.756622 487.327026,299.357117 
	C486.930237,288.419189 486.873840,277.798950 486.817444,267.178680 
	C486.817444,267.178680 486.883026,267.114594 486.914978,267.083130 
	C490.391632,269.685760 493.836304,272.319824 497.623962,274.985229 
z"/>
<path fill="#F6F7FC" opacity="1.000000" stroke="none" 
	d="
M164.326477,288.042480 
	C164.336563,289.974243 164.003159,291.896210 163.594040,294.254578 
	C160.304932,292.068909 157.920380,290.484314 155.192261,288.671417 
	C155.796555,287.687653 156.529755,286.493988 157.521484,285.097229 
	C159.847656,285.940308 161.915329,286.986481 164.326477,288.042480 
z"/>
<path fill="#FBFBFC" opacity="1.000000" stroke="none" 
	d="
M199.831863,327.325287 
	C201.170517,327.712769 202.638306,328.229736 203.632324,329.221558 
	C237.914841,363.428070 272.153625,397.678345 306.387543,431.933533 
	C306.950714,432.497040 307.376648,433.197693 308.234161,434.311859 
	C302.621002,439.894592 297.186859,445.462585 291.500061,450.759308 
	C290.745575,451.462067 288.608063,451.083893 287.294525,450.650421 
	C286.304352,450.323578 285.604279,449.111206 284.780579,448.287476 
	C252.418777,415.925934 220.051758,383.569550 187.716827,351.181152 
	C186.338760,349.800812 185.259262,348.122375 183.997894,346.227234 
	C186.196136,343.395538 188.427979,340.910950 190.683075,338.447693 
	C191.510971,337.543365 192.463242,336.746338 193.238525,335.801666 
	C195.438934,333.120453 197.577301,330.388275 199.831863,327.325287 
z"/>
<path fill="#F6F7FC" opacity="1.000000" stroke="none" 
	d="
M136.232574,302.863861 
	C146.816895,304.713318 146.848846,304.713196 146.886322,315.016876 
	C146.925583,325.812012 146.895096,336.607452 146.895096,348.143036 
	C139.225128,346.589294 131.978165,345.120300 124.730751,343.653564 
	C121.797829,343.059998 118.772621,342.737549 115.966553,341.775208 
	C114.418411,341.244293 112.968307,339.815430 112.068176,338.410645 
	C111.824135,338.029755 113.536438,335.951874 114.700928,335.183319 
	C122.768654,329.858887 122.561028,314.856476 113.959885,310.692749 
	C109.943596,308.748566 110.890305,305.949219 111.457130,303.271759 
	C112.176720,299.872650 114.794746,298.317200 118.262245,298.999329 
	C124.134682,300.154572 129.967255,301.512360 136.232574,302.863861 
z"/>
<path fill="#F9FAFC" opacity="1.000000" stroke="none" 
	d="
M151.400024,315.931274 
	C150.168091,305.024506 150.168625,305.027161 160.484650,302.953400 
	C165.048004,302.036072 169.608719,301.105499 174.618195,300.548950 
	C177.741272,303.992584 180.416763,307.068207 183.092255,310.143860 
	C177.267014,314.908539 176.955002,321.556641 178.395309,327.868805 
	C179.202805,331.407745 182.702469,334.332428 186.076202,339.055756 
	C185.908569,341.628479 182.426590,341.973053 178.307587,341.850800 
	C172.990616,336.657288 168.290329,331.723480 163.413666,326.970673 
	C159.520584,323.176514 155.412598,319.602844 151.400024,315.931274 
z"/>
<path fill="#F9FAFC" opacity="1.000000" stroke="none" 
	d="
M170.967911,343.873383 
	C164.560730,345.282501 158.153564,346.691650 151.091827,348.244751 
	C151.091827,340.063965 151.091827,332.519348 151.486633,324.548889 
	C156.083786,328.072296 160.394547,331.914337 164.447327,336.011536 
	C166.832489,338.422821 168.808090,341.239197 170.967911,343.873383 
z"/>
<path fill="#F6F7FC" opacity="1.000000" stroke="none" 
	d="
M121.510437,285.379761 
	C121.367653,283.844574 121.051682,281.760681 121.946815,280.757690 
	C125.249458,277.057007 128.952759,273.713928 132.812103,270.080719 
	C134.169174,272.276825 135.114914,274.682495 136.293152,276.968384 
	C138.336105,280.931885 140.522980,284.821228 142.551804,288.561523 
	C139.993973,290.483398 137.425262,292.413422 134.282440,294.774841 
	C133.467484,290.331024 132.661575,285.936615 131.843552,281.476105 
	C128.360504,282.824158 125.126808,284.075684 121.510437,285.379761 
z"/>
<path fill="#DDE6FC" opacity="1.000000" stroke="none" 
	d="
M171.344070,343.894775 
	C168.808090,341.239197 166.832489,338.422821 164.447327,336.011536 
	C160.394547,331.914337 156.083786,328.072296 151.555832,324.088562 
	C151.201996,321.638092 151.173767,319.222076 151.272797,316.368652 
	C155.412598,319.602844 159.520584,323.176514 163.413666,326.970673 
	C168.290329,331.723480 172.990616,336.657288 177.900543,341.830688 
	C175.929428,342.737671 173.824829,343.326935 171.344070,343.894775 
z"/>
<path fill="#DDE6FC" opacity="1.000000" stroke="none" 
	d="
M183.497284,310.126678 
	C180.416763,307.068207 177.741272,303.992584 175.008774,300.597382 
	C177.170532,299.808472 179.740662,298.423187 181.517792,299.104980 
	C183.669205,299.930328 185.886551,302.230957 186.692825,304.405731 
	C187.364777,306.218201 188.401779,310.001770 183.497284,310.126678 
z"/>
<path fill="#FBFCFC" opacity="1.000000" stroke="none" 
	d="
M523.982300,258.477722 
	C528.263733,262.163605 532.514587,266.316254 536.923767,270.773804 
	C532.732666,279.777527 532.684875,288.506989 536.954468,297.632751 
	C535.295715,299.204498 533.356384,300.187683 531.893555,301.648132 
	C482.960480,350.504333 434.073334,399.406555 385.177856,448.300446 
	C380.486450,452.991638 380.513977,452.953796 375.855652,448.392365 
	C371.220703,443.853821 366.511536,439.391022 361.421234,434.497314 
	C363.041168,432.704895 364.161041,431.351227 365.397552,430.114136 
	C408.627319,386.865112 451.864197,343.623199 495.126312,300.406555 
	C496.392883,299.141296 497.941833,298.158722 499.710205,297.002991 
	C505.729431,303.783783 510.085052,304.065338 519.904846,298.040649 
	C520.658142,299.284851 521.411865,300.529633 522.165527,301.774414 
	C522.760925,301.719940 523.356323,301.665466 523.951721,301.610992 
	C523.951721,287.388824 523.951721,273.166687 523.982300,258.477722 
z"/>
<path fill="#FBFBFC" opacity="1.000000" stroke="none" 
	d="
M346.745819,472.265381 
	C354.871307,480.570862 354.862213,478.382690 347.115173,486.395203 
	C343.317200,490.323364 339.667236,494.394653 335.299957,499.102173 
	C329.046112,492.726624 323.437500,487.145050 318.060760,481.348419 
	C317.416718,480.654083 317.477692,478.266449 318.152344,477.552917 
	C323.492249,471.905518 329.060394,466.473846 335.791962,459.742310 
	C339.560394,464.063232 343.027649,468.038757 346.745819,472.265381 
z"/>
<path fill="#FBFCFC" opacity="1.000000" stroke="none" 
	d="
M336.203369,451.219482 
	C334.455475,450.942932 332.608337,450.850494 331.570740,449.886627 
	C327.072906,445.708191 322.663910,441.406494 318.588226,436.824432 
	C317.772400,435.907257 317.856750,432.938202 318.714355,431.989899 
	C323.712555,426.462769 329.065155,421.256104 333.810211,416.436737 
	C340.043640,422.713226 345.939667,428.649994 352.531799,435.287689 
	C347.769989,439.948547 342.123352,445.475525 336.203369,451.219482 
z"/>
<path fill="#97ACFC" opacity="1.000000" stroke="none" 
	d="
M486.416443,267.122070 
	C486.873840,277.798950 486.930237,288.419189 487.034241,299.503204 
	C486.638519,300.550110 486.195190,301.133301 485.463135,301.733643 
	C484.558258,300.602722 483.942078,299.454620 483.510010,298.649597 
	C479.048981,299.794800 474.725098,301.465179 470.281494,301.893402 
	C465.508484,302.353302 462.369904,299.201294 462.240356,294.383850 
	C462.021149,286.231934 462.129456,278.068176 462.290802,269.913177 
	C462.309601,268.962128 463.533997,268.034912 464.199493,267.096619 
	C464.816071,268.063141 465.947540,269.019592 465.966675,269.997833 
	C466.103424,276.987549 465.977478,283.981873 466.006714,290.974396 
	C466.031403,296.877838 467.638641,299.161469 471.607452,299.166046 
	C476.991150,299.172272 483.024139,294.632965 483.071136,290.406860 
	C483.143280,283.914368 483.085022,277.420471 483.095276,270.927185 
	C483.098450,268.922028 482.778290,266.639648 486.416443,267.122070 
z"/>
<path fill="#DDE6FC" opacity="1.000000" stroke="none" 
	d="
M557.003418,282.003326 
	C557.007751,282.454285 557.012085,282.905273 556.695129,283.835022 
	C551.894348,288.898376 547.414917,293.482910 542.935486,298.067444 
	C541.723511,296.567017 540.511536,295.066528 539.538696,293.233887 
	C542.444397,290.493561 545.327881,288.271576 547.650269,285.567749 
	C548.380859,284.717224 548.165100,282.182861 547.408691,281.098602 
	C545.549500,278.433685 543.124146,276.163666 540.926514,273.734802 
	C542.017334,272.481262 543.108154,271.227722 544.693359,270.229126 
	C549.126343,274.323822 553.064880,278.163574 557.003418,282.003326 
z"/>
<path fill="#F9FAFC" opacity="1.000000" stroke="none" 
	d="
M540.603333,273.949036 
	C543.124146,276.163666 545.549500,278.433685 547.408691,281.098602 
	C548.165100,282.182861 548.380859,284.717224 547.650269,285.567749 
	C545.327881,288.271576 542.444397,290.493561 539.444031,292.923248 
	C537.540527,286.562164 536.538269,280.214935 540.603333,273.949036 
z"/>
<path fill="#F9FAFC" opacity="1.000000" stroke="none" 
	d="
M543.213989,298.346588 
	C547.414917,293.482910 551.894348,288.898376 556.669312,284.172485 
	C557.080627,289.184204 558.488586,294.985596 551.927368,297.407959 
	C549.321106,298.370209 546.316040,298.252045 543.213989,298.346588 
z"/>
<path fill="#F9FAFC" opacity="1.000000" stroke="none" 
	d="
M557.024048,281.567200 
	C553.064880,278.163574 549.126343,274.323822 545.019287,270.174408 
	C552.469849,268.398712 557.108032,272.684082 557.024048,281.567200 
z"/>
<path fill="#F9FAFC" opacity="1.000000" stroke="none" 
	d="
M502.893311,274.987671 
	C503.622437,270.487549 506.963837,269.138641 510.761292,269.241455 
	C515.755676,269.376648 520.004150,273.150604 520.114319,277.054901 
	C520.226135,281.020233 520.125854,284.991760 520.105164,288.960541 
	C520.079041,293.981659 516.882263,297.835419 511.824371,298.963837 
	C507.018982,300.035889 504.612183,298.485657 502.532349,292.357666 
	C512.715576,284.821289 512.814087,283.098694 503.775452,275.431702 
	C503.531433,275.224670 503.189545,275.133087 502.893311,274.987671 
z"/>
<path fill="#DDE6FC" opacity="1.000000" stroke="none" 
	d="
M502.630219,275.228180 
	C503.189545,275.133087 503.531433,275.224670 503.775452,275.431702 
	C512.814087,283.098694 512.715576,284.821289 502.527039,292.005219 
	C502.259033,286.536102 502.313080,281.002380 502.630219,275.228180 
z"/>
<path fill="#6A80FD" opacity="1.000000" stroke="none" 
	d="
M263.255280,298.096771 
	C265.786102,298.448853 267.934784,299.021637 270.049652,298.916321 
	C275.751007,298.632385 279.999359,295.047699 280.788055,290.219086 
	C281.502686,285.843994 278.877777,281.654205 273.823822,279.254456 
	C269.766754,277.328064 265.616943,275.590881 261.605133,273.576843 
	C256.059570,270.792847 253.231567,265.952454 253.880035,260.790955 
	C254.546890,255.483139 258.812195,251.340729 265.007782,250.224106 
	C270.902283,249.161789 276.513123,249.969315 281.683258,253.015366 
	C281.686859,253.572418 281.690491,254.129471 281.694092,254.686523 
	C280.245667,254.686523 278.677612,255.050858 277.370209,254.621490 
	C272.513733,253.026520 267.733490,251.985245 262.828094,254.359573 
	C256.462708,257.440552 255.548401,264.798523 261.392487,268.756622 
	C265.069092,271.246735 269.325775,272.896057 273.366943,274.829102 
	C282.755188,279.319885 286.198669,284.354309 284.600220,291.398315 
	C282.974182,298.563812 276.266296,302.885010 266.577850,301.872589 
	C262.129089,301.407684 257.818848,299.224030 253.575043,297.501404 
	C252.659470,297.129791 252.299881,295.388397 251.684189,294.277985 
	C252.814285,294.416809 254.021439,294.348633 255.059387,294.735016 
	C257.699188,295.717682 260.263275,296.903656 263.255280,298.096771 
z"/>
<path fill="#839AFD" opacity="1.000000" stroke="none" 
	d="
M377.031525,259.968323 
	C377.024414,256.991638 376.870972,254.480698 377.094788,252.003845 
	C377.172119,251.148178 378.187805,250.377335 378.774841,249.567749 
	C379.456238,250.344086 380.214111,251.069427 380.782166,251.921341 
	C381.016052,252.272110 380.850830,252.895172 380.851471,253.394394 
	C380.870972,268.546356 380.899506,283.698364 380.878357,298.850250 
	C380.877136,299.738953 380.472260,300.627106 379.968689,302.688446 
	C378.425323,300.705933 377.518585,299.541260 376.543091,298.288208 
	C374.223358,299.428406 371.976044,300.936035 369.499420,301.669739 
	C363.622314,303.410950 359.464752,301.503174 356.653381,296.013794 
	C353.115356,289.105591 352.925629,281.857208 355.551819,274.712952 
	C358.671173,266.227081 365.586761,263.848267 373.591370,268.080017 
	C374.460571,268.539520 375.304291,269.047150 377.033264,270.027893 
	C377.033264,266.497711 377.033264,263.472595 377.031525,259.968323 
M358.887878,292.210632 
	C360.128296,296.668854 362.510559,299.674744 367.686096,299.127228 
	C373.113434,298.553009 377.002747,294.351074 377.033997,289.017303 
	C377.053436,285.693817 377.068024,282.370270 377.070343,279.046753 
	C377.074188,273.550201 374.399933,270.557373 368.561584,269.504730 
	C364.171600,268.713196 359.978058,271.068634 359.082550,276.169708 
	C358.214874,281.112427 358.781342,286.306885 358.887878,292.210632 
z"/>
<path fill="#889FFC" opacity="1.000000" stroke="none" 
	d="
M425.320312,275.000000 
	C425.316528,267.341980 425.226135,260.181915 425.394592,253.027954 
	C425.422058,251.861130 426.593048,250.721222 427.235474,249.568878 
	C427.841370,250.693237 428.932007,251.801208 428.970612,252.944733 
	C429.154785,258.397644 429.053131,263.860229 429.053131,270.056122 
	C431.323822,268.928864 433.023438,268.013458 434.780212,267.225677 
	C441.472137,264.224884 448.995667,267.268463 450.570068,274.442047 
	C451.677032,279.485962 452.061676,285.085419 451.087585,290.110901 
	C448.643738,302.719025 440.881226,305.512299 429.588043,298.188934 
	C428.823792,299.261566 428.037598,300.365021 426.678192,302.273010 
	C424.137634,297.595398 425.636414,293.138550 425.381683,288.979950 
	C425.107422,284.502167 425.319855,279.994568 425.320312,275.000000 
M429.319336,293.489624 
	C430.548035,294.590607 431.673981,295.841125 433.022675,296.767365 
	C439.907623,301.495728 445.375702,299.776337 447.204132,291.626892 
	C448.269440,286.878845 448.259308,281.681488 447.652191,276.821350 
	C446.965942,271.328003 442.878967,268.525574 438.325439,269.160217 
	C432.389221,269.987549 429.006165,273.617889 429.017548,279.195282 
	C429.026733,283.688568 429.075714,288.181763 429.319336,293.489624 
z"/>
<path fill="#889FFC" opacity="1.000000" stroke="none" 
	d="
M411.998718,274.888885 
	C413.581940,271.880615 413.085510,267.827271 418.006042,266.737610 
	C417.733765,268.489685 417.765778,269.776703 417.327362,270.876129 
	C412.344208,283.372772 407.346649,295.864441 402.219482,308.302460 
	C400.603912,312.221619 398.364716,315.816620 393.630310,316.481293 
	C392.300140,316.668060 390.873444,316.167267 389.491028,315.981873 
	C389.446289,315.494995 389.401550,315.008118 389.356812,314.521240 
	C390.443085,314.052795 391.502106,313.502533 392.620239,313.129608 
	C398.422424,311.194489 401.415436,305.565216 399.500732,299.704529 
	C396.508331,290.545227 393.357849,281.437561 390.298889,272.299835 
	C389.796417,270.798828 389.419739,269.255676 388.984955,267.731995 
	C389.491669,267.369385 389.998352,267.006805 390.505066,266.644226 
	C391.619324,267.916168 393.246277,269.009949 393.760590,270.490326 
	C396.211761,277.545807 398.348419,284.710297 400.626160,291.826630 
	C401.156677,293.484100 401.801392,295.105011 402.877472,298.080811 
	C406.214569,289.630737 409.052063,282.445740 411.998718,274.888885 
z"/>
<path fill="#839AFD" opacity="1.000000" stroke="none" 
	d="
M339.161407,298.326538 
	C335.246185,299.610718 331.772705,301.510437 328.126343,301.939117 
	C322.696106,302.577484 319.436829,299.665527 319.234314,294.241821 
	C318.930450,286.103638 319.126953,277.942841 319.304443,269.795868 
	C319.324738,268.864929 320.586639,267.960999 321.272827,267.044556 
	C321.838989,268.063629 322.879181,269.075226 322.895325,270.102905 
	C323.010101,277.420105 322.838135,284.741302 322.910736,292.059753 
	C322.977417,298.782166 326.627319,301.023407 332.767456,298.249237 
	C337.571167,296.078857 341.052551,293.461548 340.180847,287.042725 
	C339.404572,281.326691 339.958008,275.418701 340.109924,269.600281 
	C340.132568,268.732880 341.172272,267.892029 341.741425,267.038910 
	C342.452423,267.749390 343.773895,268.452362 343.782806,269.171509 
	C343.915344,279.893158 343.874420,290.616974 343.874420,301.340271 
	C343.416046,301.521942 342.957672,301.703644 342.499298,301.885315 
	C341.508148,300.684845 340.516998,299.484375 339.161407,298.326538 
z"/>
<path fill="#7489FD" opacity="1.000000" stroke="none" 
	d="
M300.742126,291.804138 
	C300.358429,296.379395 301.815643,298.599426 306.342255,298.343964 
	C307.460693,298.280853 308.649445,299.462799 309.805878,300.072388 
	C308.588776,300.596497 307.392487,301.514191 306.151184,301.579773 
	C299.045471,301.955231 297.145660,300.146332 297.090424,293.095917 
	C297.031921,285.623352 297.077301,278.149963 297.077301,270.494537 
	C294.832916,269.929047 292.850769,269.429626 290.868622,268.930206 
	C290.929138,268.466980 290.989655,268.003754 291.050171,267.540558 
	C292.867401,267.209106 294.684631,266.877655 297.091736,266.438599 
	C297.091736,263.410522 296.961639,260.286072 297.176422,257.185486 
	C297.235596,256.331268 298.323883,255.548325 298.939972,254.732681 
	C299.534546,255.575958 300.577881,256.386688 300.641785,257.268433 
	C300.856934,260.237244 300.723633,263.231323 300.723633,266.589355 
	C303.975098,266.842468 306.960114,267.074860 309.945129,267.307251 
	C309.982056,267.948914 310.019012,268.590546 310.055939,269.232208 
	C307.253174,269.522949 304.450409,269.813690 300.739960,270.198578 
	C300.739960,277.176453 300.739960,284.251556 300.742126,291.804138 
z"/>
<path fill="#F9FAFC" opacity="1.000000" stroke="none" 
	d="
M358.802917,291.800720 
	C358.781342,286.306885 358.214874,281.112427 359.082550,276.169708 
	C359.978058,271.068634 364.171600,268.713196 368.561584,269.504730 
	C374.399933,270.557373 377.074188,273.550201 377.070343,279.046753 
	C377.068024,282.370270 377.053436,285.693817 377.033997,289.017303 
	C377.002747,294.351074 373.113434,298.553009 367.686096,299.127228 
	C362.510559,299.674744 360.128296,296.668854 358.802917,291.800720 
z"/>
<path fill="#F9FAFC" opacity="1.000000" stroke="none" 
	d="
M429.213196,293.082336 
	C429.075714,288.181763 429.026733,283.688568 429.017548,279.195282 
	C429.006165,273.617889 432.389221,269.987549 438.325439,269.160217 
	C442.878967,268.525574 446.965942,271.328003 447.652191,276.821350 
	C448.259308,281.681488 448.269440,286.878845 447.204132,291.626892 
	C445.375702,299.776337 439.907623,301.495728 433.022675,296.767365 
	C431.673981,295.841125 430.548035,294.590607 429.213196,293.082336 
z"/>
</svg>